
        <svg xmlns="http://www.w3.org/2000/svg" xmlns:xlink="http://www.w3.org/1999/xlink" version="1.1" width="2857.1389888473987" 
        height="3176.9372548243728" viewBox="0 0 2857.1389888473987 3176.9372548243728">
			<rect fill="#f4f4f4" width="2857.1389888473987" height="3176.9372548243728"/>
			<g transform="scale(8.846862741218626) translate(10, 10)">
				<defs id="SvgjsDefs3879"></defs><g id="SvgjsG3880" featureKey="ewgXDI-0" transform="matrix(28.673770011806774,0,0,28.673770011806774,-20.07163353917714,-240.1068610079788)" fill="#4e5ca6"><path d="M6.18 9.42 c2.36 0 5.66 1.78 5 6.48 l-7.26 0 c0.36 1.08 1.3 1.64 2.56 1.64 c1.28 0 1.68 -0.28 2.4 -0.58 l1.74 1.68 c-0.92 0.9 -2.16 1.56 -4.26 1.56 c-2.58 0 -5.66 -1.78 -5.66 -5.36 c0 -3.64 3.12 -5.42 5.48 -5.42 z M6.18 12.120000000000001 c-0.9 0 -1.82 0.52 -2.22 1.56 l4.42 0 c-0.32 -1.04 -1.3 -1.56 -2.2 -1.56 z"></path></g>
			</g>
		</svg>
	